<svg xmlns="http://www.w3.org/2000/svg" xml:space="preserve" id="svg1" width="16" height="16" version="1.1" viewBox="0 0 4.233 4.233"><defs id="defs1"><linearGradient id="swatch21"><stop id="stop21" offset="0" style="stop-color:#434347;stop-opacity:1"/></linearGradient><linearGradient id="swatch1"><stop id="stop1" offset="0" style="stop-color:#434347;stop-opacity:1"/></linearGradient><linearGradient id="swatch237" x1="239.277" x2="242.565" y1="-243.622" y2="-243.622" gradientTransform="translate(-368.484 280.698)" gradientUnits="userSpaceOnUse"><stop id="stop238" offset="0" style="stop-color:#fdfdfd;stop-opacity:1"/></linearGradient><linearGradient id="swatch191" gradientTransform="translate(578.164 -463.972)scale(.10613)"><stop id="stop191" offset="0" style="stop-color:#c8c8c8;stop-opacity:.56510419"/></linearGradient><linearGradient id="swatch189" gradientTransform="rotate(90 -184.095 -331.621)scale(.05202)"><stop id="stop189" offset="0" style="stop-color:#7f7f7f;stop-opacity:1"/></linearGradient><linearGradient id="swatch188" gradientTransform="matrix(0 0 0 0 78947.075 -461.756)"><stop id="stop188" offset="0" style="stop-color:#d1d1d1;stop-opacity:1"/></linearGradient><linearGradient id="linearGradient7212"><stop id="stop7214" offset="0" style="stop-color:#000;stop-opacity:1"/></linearGradient></defs><g id="g39" transform="translate(-.487 -.487)"><path id="path1613-6-1-1-2-99" d="M4.248 1.371c0-.176-.066-.294-.144-.351C4.026.96 3.94.96 3.94.96H1.268s-.086 0-.164.06c-.078.057-.144.175-.144.351q0 .035.022.063l.873 1.13a.1.1 0 0 0 .081.04h1.387a.1.1 0 0 0 .084-.043l.822-1.13a.1.1 0 0 0 .019-.06m-.23 0L3.27 2.4H1.987l-.794-1.03Zm0 0" style="fill:currentColor;fill-opacity:0.45;stroke-width:.20548"/><path id="path1614-6-5-6-2-6" fill-opacity=".349" d="M4.248 3.837a.1.1 0 0 0-.02-.061l-.821-1.13a.1.1 0 0 0-.084-.042H1.936a.1.1 0 0 0-.081.04l-.873 1.13a.1.1 0 0 0-.022.063c0 .176.066.294.144.352s.164.059.164.059H3.94s.087 0 .165-.059.144-.176.144-.352zm-.23 0H1.193l.794-1.028H3.27Zm0 0" style="fill:currentColor;fill-opacity:1;stroke-width:.20548"/></g></svg>